<?xml version="1.0" standalone="no"?>
<!DOCTYPE svg PUBLIC "-//W3C//DTD SVG 20010904//EN"
 "http://www.w3.org/TR/2001/REC-SVG-20010904/DTD/svg10.dtd">
<svg version="1.0" xmlns="http://www.w3.org/2000/svg"
 width="543.000000pt" height="220.000000pt" viewBox="0 0 543.000000 220.000000"
 preserveAspectRatio="xMidYMid meet">

<g transform="translate(0.000000,220.000000) scale(0.100000,-0.100000)"
fill="#000000" stroke="none">
<path d="M4387 1909 c-75 -18 -170 -72 -239 -137 -80 -76 -145 -192 -155 -279
l-6 -53 91 0 91 0 11 43 c35 129 158 235 296 253 150 18 310 -78 363 -220 11
-31 21 -61 21 -66 0 -6 40 -10 94 -10 l93 0 -9 51 c-36 200 -201 373 -398 418
-54 13 -200 12 -253 0z"/>
<path d="M771 1510 c-173 -37 -276 -111 -337 -244 -95 -207 -17 -445 168 -514
96 -36 180 -46 333 -38 118 5 232 19 240 29 2 1 8 94 15 207 7 113 13 210 14
215 0 6 -61 10 -166 11 l-168 0 0 -47 c0 -25 -3 -61 -6 -78 l-6 -31 51 0 51 0
0 -64 c0 -74 -2 -76 -110 -76 -77 0 -134 23 -173 69 -32 38 -41 83 -34 160 8
94 55 164 141 209 47 24 61 27 161 26 75 0 129 -6 169 -18 32 -9 60 -15 62
-13 3 2 1 43 -2 90 l-7 85 -61 12 c-84 15 -281 21 -335 10z"/>
<path d="M2260 1504 c-114 -30 -175 -101 -175 -204 0 -76 21 -107 150 -223
110 -97 130 -124 120 -158 -14 -42 -125 -51 -230 -18 -37 11 -69 18 -71 16 -3
-3 -1 -44 3 -93 l8 -88 40 -10 c22 -5 101 -9 176 -10 132 -1 137 0 194 29 40
20 69 45 90 73 27 39 30 52 30 116 0 70 -2 75 -38 120 -22 26 -71 72 -110 104
-123 97 -140 128 -96 168 17 15 35 19 93 18 39 -1 90 -8 114 -17 l43 -15 -7
87 c-3 47 -9 89 -13 93 -10 10 -145 28 -208 27 -32 0 -83 -7 -113 -15z"/>
<path d="M1508 1503 l-148 -4 0 -67 c0 -71 -15 -398 -26 -595 l-7 -118 114 3
114 3 7 294 c4 162 9 300 12 307 4 10 26 14 79 14 85 0 107 -14 107 -69 0 -64
-44 -101 -120 -101 l-42 0 8 -32 c3 -18 12 -51 18 -73 l12 -40 90 1 c104 1
149 19 207 83 41 46 57 93 57 171 0 76 -14 118 -52 158 -63 64 -120 73 -430
65z"/>
<path d="M5031 1294 c0 -11 3 -14 6 -6 3 7 2 16 -1 19 -3 4 -6 -2 -5 -13z"/>
<path d="M3255 1281 c-38 -16 -58 -50 -63 -106 -4 -53 -6 -55 -33 -55 -27 0
-29 -3 -29 -40 0 -36 2 -40 26 -40 l25 0 -7 -167 -7 -168 59 1 59 1 6 129 c4
71 7 146 8 167 l1 37 50 0 50 0 0 40 0 40 -50 0 c-49 0 -50 1 -50 29 0 47 25
64 82 57 l49 -7 -3 38 c-2 30 -8 39 -28 44 -35 10 -121 9 -145 0z"/>
<path d="M2808 1130 c-82 -13 -98 -24 -98 -65 l0 -34 40 14 c72 25 137 30 165
11 28 -18 33 -47 10 -66 -7 -6 -48 -20 -89 -30 -80 -20 -144 -49 -165 -74 -35
-41 -20 -145 23 -168 33 -18 97 -27 142 -21 37 5 43 9 52 40 l10 34 -44 -7
c-33 -5 -50 -2 -69 10 -52 34 -18 86 75 113 30 9 61 18 69 21 11 4 13 -13 10
-98 l-4 -103 55 0 55 0 9 173 c6 114 5 179 -2 194 -22 48 -131 73 -244 56z"/>
<path d="M3587 1126 c-67 -18 -97 -43 -129 -106 -50 -97 -32 -221 41 -283 18
-15 36 -27 39 -27 4 0 34 -4 66 -10 68 -11 185 2 197 22 12 19 11 80 -1 73 -5
-3 -37 -10 -70 -16 -108 -17 -167 13 -177 90 l-6 41 99 2 c55 2 123 3 152 3
l52 0 0 48 c0 86 -51 147 -140 166 -61 13 -62 13 -123 -3z m132 -92 c12 -15
21 -35 21 -45 0 -17 -9 -19 -94 -19 -89 0 -94 1 -89 20 9 35 61 70 103 70 30
0 43 -6 59 -26z"/>
<path d="M4548 1033 c7 -3 16 -2 19 1 4 3 -2 6 -13 5 -11 0 -14 -3 -6 -6z"/>
<path d="M4470 646 c0 -2 8 -10 18 -17 15 -13 16 -12 3 4 -13 16 -21 21 -21
13z"/>
<path d="M4503 573 c9 -2 23 -2 30 0 6 3 -1 5 -18 5 -16 0 -22 -2 -12 -5z"/>
<path d="M419 418 c9 -23 22 -43 27 -45 5 -2 16 14 24 34 8 21 16 41 18 46 2
4 0 7 -5 7 -5 0 -14 -15 -22 -32 l-12 -33 -17 33 c-23 47 -34 39 -13 -10z"/>
<path d="M760 416 c0 -25 5 -46 10 -46 6 0 10 18 10 39 0 22 -4 43 -10 46 -6
4 -10 -12 -10 -39z"/>
<path d="M1050 450 c0 -15 33 -80 41 -80 9 0 41 81 34 88 -3 3 -11 -9 -17 -26
-15 -40 -23 -40 -37 -2 -10 29 -21 40 -21 20z"/>
<path d="M1402 413 c3 -44 5 -48 31 -51 15 -2 27 1 27 7 0 6 -9 11 -20 11 -27
0 -25 28 3 33 l22 4 -22 2 c-13 0 -23 7 -23 15 0 8 10 17 23 19 15 3 12 5 -11
6 l-33 1 3 -47z"/>
<path d="M2037 453 c-14 -14 -6 -34 18 -45 14 -6 25 -16 25 -21 0 -5 -11 -7
-25 -5 -30 6 -33 -8 -4 -17 24 -8 55 17 44 35 -4 6 -18 15 -32 21 -31 12 -19
33 14 24 16 -4 22 -2 18 5 -7 11 -48 14 -58 3z"/>
<path d="M2372 413 c3 -44 5 -48 31 -51 15 -2 27 1 27 7 0 6 -9 11 -20 11 -27
0 -25 28 3 33 l22 4 -22 2 c-13 0 -23 7 -23 15 0 8 10 17 23 19 15 3 12 5 -11
6 l-33 1 3 -47z"/>
<path d="M2716 444 c-21 -21 -20 -40 4 -64 21 -21 29 -23 54 -14 25 10 20 44
-6 43 -13 0 -17 -3 -10 -6 19 -8 14 -23 -8 -23 -45 0 -35 58 11 71 24 7 24 7
-3 8 -15 1 -34 -6 -42 -15z"/>
<path d="M3060 421 c0 -30 5 -43 19 -51 25 -13 27 -13 45 6 17 17 22 84 7 84
-6 0 -11 -17 -13 -37 -2 -27 -8 -39 -20 -41 -14 -3 -18 4 -18 32 0 19 -4 38
-10 41 -6 4 -10 -10 -10 -34z"/>
<path d="M3421 413 c1 -26 3 -40 6 -30 5 21 43 23 43 2 0 -8 4 -15 8 -15 5 0
8 19 8 43 -1 40 -3 42 -33 45 l-33 3 1 -48z m49 17 c0 -13 -7 -20 -20 -20 -13
0 -20 7 -20 20 0 13 7 20 20 20 13 0 20 -7 20 -20z"/>
<path d="M3770 441 c-16 -31 -12 -49 15 -67 23 -15 27 -15 50 0 43 28 26 86
-25 86 -19 0 -33 -7 -40 -19z m60 -6 c19 -23 8 -50 -20 -50 -16 0 -26 6 -28
18 -4 18 14 47 28 47 4 0 13 -7 20 -15z"/>
</g>
</svg>
