<?xml version="1.0" standalone="no"?>
<!DOCTYPE svg PUBLIC "-//W3C//DTD SVG 20010904//EN"
 "http://www.w3.org/TR/2001/REC-SVG-20010904/DTD/svg10.dtd">
<svg version="1.0" xmlns="http://www.w3.org/2000/svg"
 width="2500.000000pt" height="2500.000000pt" viewBox="0 0 2500.000000 2500.000000"
 preserveAspectRatio="xMidYMid meet">

<g transform="translate(0.000000,2500.000000) scale(0.100000,-0.100000)"
fill="#000000" stroke="none">
<path d="M17600 14958 c-291 -16 -598 -124 -840 -296 -122 -86 -306 -270 -392
-392 -75 -106 -162 -273 -207 -396 -30 -84 -74 -270 -85 -361 l-7 -53 290 0
289 0 17 78 c49 221 148 396 312 553 325 310 797 384 1199 189 285 -138 494
-392 573 -694 12 -44 21 -90 21 -103 l0 -23 291 0 292 0 -7 69 c-8 96 -56 276
-105 401 -173 443 -553 800 -1012 951 -206 67 -395 91 -629 77z"/>
<path d="M6385 13710 c-350 -22 -599 -99 -835 -261 -275 -188 -466 -488 -532
-837 -20 -102 -16 -378 5 -482 65 -306 206 -540 410 -679 162 -111 407 -187
712 -221 273 -30 840 1 1197 66 l87 16 5 61 c2 34 12 222 21 417 16 348 39
726 51 825 l6 50 -524 -2 -523 -2 -7 -183 c-3 -101 -9 -211 -12 -245 l-7 -63
128 0 c70 0 144 -3 163 -6 l35 -6 -9 -189 c-7 -160 -11 -189 -25 -193 -66 -21
-224 -39 -331 -38 -374 1 -591 182 -630 523 -18 162 12 333 85 484 155 321
496 475 962 437 172 -14 345 -47 499 -96 l109 -34 2 26 c2 15 -3 144 -10 287
l-12 260 -95 17 c-232 41 -661 83 -780 76 -14 0 -79 -4 -145 -8z"/>
<path d="M10975 13709 c-248 -19 -436 -90 -574 -214 -64 -58 -137 -175 -167
-268 -29 -93 -36 -233 -15 -322 19 -79 75 -184 138 -259 31 -38 186 -182 343
-319 319 -278 354 -318 354 -400 0 -68 -27 -107 -97 -141 -165 -79 -471 -46
-787 84 l-73 30 7 -38 c3 -20 15 -154 27 -297 12 -143 26 -263 32 -266 5 -4
69 -16 141 -28 435 -69 756 -69 988 0 206 61 380 198 457 359 59 124 74 194
69 315 -11 222 -118 367 -498 670 -300 240 -358 307 -347 405 7 62 63 112 160
142 136 41 401 12 613 -68 l64 -24 0 28 c0 15 -6 92 -14 172 -8 80 -18 198
-21 262 l-7 116 -63 11 c-176 31 -541 66 -615 59 -8 0 -60 -4 -115 -9z"/>
<path d="M8595 13670 c-121 -4 -310 -5 -420 -2 l-200 5 -2 -294 c-3 -520 -65
-1839 -97 -2086 l-5 -33 360 0 359 0 0 154 c0 420 48 1728 64 1744 3 2 83 7
179 10 215 6 261 -3 322 -62 51 -49 69 -104 62 -191 -8 -104 -66 -188 -163
-236 -45 -22 -61 -24 -197 -24 -143 0 -148 -1 -142 -20 20 -71 86 -340 95
-391 12 -60 13 -62 49 -68 87 -15 234 -18 325 -7 325 41 554 186 671 425 69
138 88 224 88 386 0 227 -52 369 -183 501 -86 86 -176 138 -297 171 -69 18
-110 21 -363 23 -157 1 -384 -1 -505 -5z"/>
<path d="M13890 12997 c-114 -26 -193 -85 -231 -171 -19 -43 -23 -74 -27 -188
l-4 -138 -89 0 -89 0 0 -58 c0 -33 -3 -93 -6 -135 l-7 -77 79 0 79 0 -3 -57
c-21 -477 -44 -920 -49 -943 l-5 -30 196 0 196 0 0 128 c0 120 11 426 26 755
l7 147 153 0 154 0 0 43 c0 24 3 85 6 135 l7 92 -163 0 -163 0 5 74 c6 87 27
130 78 157 46 25 144 25 245 -1 43 -11 79 -19 80 -18 4 5 -15 251 -19 256 -30
29 -363 50 -456 29z"/>
<path d="M12615 12534 c-145 -11 -416 -56 -445 -74 -7 -4 -19 -46 -26 -92 -7
-45 -15 -102 -19 -124 l-7 -42 113 38 c217 73 445 95 539 53 65 -29 85 -56 85
-113 0 -40 -5 -54 -29 -79 -43 -45 -75 -57 -309 -116 -232 -58 -333 -96 -408
-151 -118 -86 -163 -177 -157 -314 7 -140 69 -244 178 -300 80 -41 163 -52
335 -47 88 3 169 8 181 12 16 5 27 30 52 117 18 61 31 113 28 115 -2 2 -30 -3
-62 -13 -70 -20 -205 -23 -256 -5 -20 6 -51 28 -68 47 -25 29 -30 43 -30 85 0
115 70 166 330 239 63 17 139 45 169 61 l53 28 -6 -122 c-12 -203 -26 -419
-32 -479 l-7 -58 192 0 191 0 0 153 c1 83 5 215 10 292 32 511 34 587 16 649
-33 111 -135 188 -292 221 -73 15 -239 25 -319 19z"/>
<path d="M14944 12530 c-296 -37 -493 -216 -565 -515 -29 -121 -29 -287 0
-398 57 -218 207 -368 422 -423 42 -10 127 -18 249 -21 158 -4 204 -2 315 16
72 12 135 27 141 34 11 12 58 267 50 274 -2 2 -51 -10 -109 -26 -207 -58 -383
-66 -499 -22 -75 29 -150 97 -184 168 -22 45 -29 74 -32 145 l-4 88 465 0 465
0 6 23 c10 37 7 192 -5 249 -29 140 -136 286 -250 341 -117 57 -314 85 -465
67z m219 -242 c83 -20 149 -122 151 -232 l1 -41 -145 -3 c-80 -2 -209 0 -286
3 l-142 7 10 36 c52 190 213 280 411 230z"/>
<path d="M5041 10446 c-9 -10 2 -45 48 -152 57 -134 76 -160 98 -132 16 21
113 255 113 272 0 10 -9 16 -23 16 -20 0 -28 -14 -62 -104 -22 -58 -42 -103
-46 -101 -3 2 -23 46 -44 97 -50 122 -59 134 -84 104z"/>
<path d="M7021 10446 c-9 -10 2 -45 48 -152 57 -134 76 -160 98 -132 16 21
113 255 113 272 0 10 -9 16 -23 16 -20 0 -28 -14 -62 -104 -22 -58 -42 -103
-46 -101 -3 2 -23 46 -44 97 -50 122 -59 134 -84 104z"/>
<path d="M10090 10442 c-73 -36 -61 -126 20 -151 76 -23 90 -30 97 -47 16 -42
-69 -63 -120 -29 -29 18 -47 13 -47 -13 0 -26 52 -52 105 -52 77 0 114 30 115
91 0 45 -22 66 -90 84 -77 20 -94 39 -64 69 19 20 60 20 98 1 32 -17 46 -12
46 16 0 13 -12 25 -35 35 -46 19 -82 18 -125 -4z"/>
<path d="M12220 10449 c-94 -38 -130 -155 -71 -236 36 -50 76 -67 145 -61 76
6 86 17 86 94 l0 64 -55 0 c-42 0 -57 -4 -62 -16 -7 -19 13 -34 45 -34 20 0
23 -5 20 -27 -3 -25 -8 -28 -44 -31 -79 -6 -131 68 -100 141 20 49 62 70 126
61 45 -6 50 -5 50 13 0 37 -81 55 -140 32z"/>
<path d="M15471 10442 c-48 -24 -73 -62 -79 -121 -6 -62 9 -101 55 -141 28
-25 42 -30 84 -30 62 0 100 21 128 70 59 105 -11 240 -124 240 -16 0 -45 -8
-64 -18z m117 -57 c37 -31 48 -73 32 -120 -14 -41 -44 -65 -83 -65 -41 0 -67
17 -83 56 -20 48 -9 98 28 129 38 32 69 32 106 0z"/>
<path d="M6137 10444 c-11 -11 -8 -267 3 -284 7 -12 13 -12 27 -4 16 10 18 28
18 150 0 132 -1 139 -20 142 -12 2 -24 0 -28 -4z"/>
<path d="M8117 10443 c-10 -9 -8 -266 1 -281 6 -9 33 -12 98 -10 81 3 89 5 89
23 0 18 -8 20 -67 23 l-68 3 0 39 0 39 58 3 c49 3 57 6 57 23 0 17 -8 20 -57
23 l-58 3 0 39 0 40 70 0 c63 0 70 2 70 20 0 19 -7 20 -93 20 -52 0 -97 -3
-100 -7z"/>
<path d="M11107 10443 c-10 -9 -8 -266 1 -281 6 -9 33 -12 98 -10 81 3 89 5
89 23 0 18 -8 20 -67 23 l-68 3 0 39 0 39 58 3 c49 3 57 6 57 23 0 17 -8 20
-57 23 l-58 3 0 39 0 40 70 0 c63 0 70 2 70 20 0 19 -7 20 -93 20 -52 0 -97
-3 -100 -7z"/>
<path d="M13224 10435 c-4 -8 -4 -59 -2 -113 5 -134 34 -172 129 -172 33 0 48
7 75 34 l34 34 0 116 c0 109 -1 116 -20 116 -19 0 -20 -7 -20 -92 0 -55 -6
-103 -13 -118 -18 -35 -61 -48 -95 -29 -26 14 -27 18 -32 124 -5 105 -6 110
-28 113 -13 2 -25 -3 -28 -13z"/>
<path d="M14314 10437 c-2 -7 -3 -71 -2 -141 3 -111 5 -130 21 -140 24 -15 37
6 37 62 l0 42 48 0 c52 0 72 -12 72 -45 0 -29 28 -65 51 -65 20 0 27 34 9 45
-5 3 -10 16 -10 29 0 12 -6 31 -14 41 -12 17 -12 22 5 44 27 34 25 86 -6 116
-22 23 -32 25 -115 25 -65 0 -92 -4 -96 -13z m171 -51 c11 -17 13 -30 6 -48
-11 -30 -29 -38 -82 -38 l-39 0 0 55 0 55 50 0 c41 0 52 -4 65 -24z"/>
</g>
</svg>
